<?xml version="1.0" encoding="UTF-8" standalone="no"?>
<svg
   width="94"
   height="74"
   viewBox="0 0 94 74"
   fill="none"
   version="1.1"
   id="svg1"
   xmlns="http://www.w3.org/2000/svg"
   xmlns:svg="http://www.w3.org/2000/svg">
  <defs
     id="defs1" />
  <path
     d="m 14.8,0 h 64.1333 c 3.9252,0 7.6897,1.55928 10.4652,4.33482 2.7756,2.77554 4.3348,6.53998 4.3348,10.46518 v 44.4 c 0,3.9252 -1.5592,7.6896 -4.3348,10.4652 C 86.623,72.4407 82.8585,74 78.9333,74 H 14.8 C 10.8748,74 7.11036,72.4407 4.33482,69.6652 1.55928,66.8896 0,63.1252 0,59.2 V 14.8 C 0,10.8748 1.55928,7.11036 4.33482,4.33482 7.11036,1.55928 10.8748,0 14.8,0 Z m 0,4.93333 c -2.4075,0 -4.6176,0.86334 -6.32947,2.29894 L 46.8667,32.1653 85.2628,7.23227 C 83.4896,5.74444 81.2481,4.9303 78.9333,4.93333 Z M 46.8667,38.0459 5.5944,11.248 C 5.15675,12.3811 4.93262,13.5854 4.93333,14.8 v 44.4 c 0,2.6168 1.03952,5.1264 2.88988,6.9768 1.85036,1.8503 4.35999,2.8899 6.97679,2.8899 h 64.1333 c 2.6168,0 5.1265,-1.0396 6.9768,-2.8899 C 87.7605,64.3264 88.8,61.8168 88.8,59.2 V 14.8 c 0,-1.2531 -0.2319,-2.4519 -0.6611,-3.552 L 46.8667,38.0409 Z"
     fill="#ED8A0A"
     id="path1"
     style="fill:#fdcd00;fill-opacity:1" />
</svg>
