<?xml version="1.0" encoding="UTF-8" standalone="no"?>
<svg
   width="74"
   height="74"
   viewBox="0 0 74 74"
   fill="none"
   version="1.1"
   id="svg1"
   xmlns="http://www.w3.org/2000/svg"
   xmlns:svg="http://www.w3.org/2000/svg">
  <defs
     id="defs1" />
  <path
     d="m 46.1562,4.10802 c 0.1058,-0.39563 0.3644,-0.73304 0.719,-0.938 0.3545,-0.20497 0.776,-0.26071 1.1716,-0.15498 5.498,1.47847 10.511,4.3757 14.5367,8.40146 4.0258,4.0258 6.923,9.0387 8.4015,14.5367 0.0552,0.1968 0.0708,0.4026 0.0459,0.6055 -0.0249,0.2028 -0.0899,0.3987 -0.1911,0.5763 -0.1012,0.1776 -0.2367,0.3333 -0.3985,0.4581 -0.1619,0.1249 -0.3469,0.2163 -0.5443,0.2691 -0.1975,0.0528 -0.4035,0.0659 -0.606,0.0385 C 69.0884,27.8733 68.8933,27.8059 68.717,27.7025 68.5407,27.5991 68.3867,27.4618 68.2638,27.2984 68.141,27.135 68.0518,26.9489 68.0014,26.7508 66.6639,21.7768 64.0428,17.2415 60.4007,13.5993 56.7586,9.95722 52.2233,7.33611 47.2492,5.99862 46.8536,5.89282 46.5162,5.6342 46.3112,5.27966 46.1062,4.92511 46.0505,4.50366 46.1562,4.10802 Z M 44.051,17.9345 c 2.8797,0.7744 5.5053,2.2919 7.6139,4.4005 2.1085,2.1087 3.626,4.7343 4.4003,7.614 0.0509,0.1976 0.1404,0.3831 0.2634,0.5459 0.123,0.1628 0.277,0.2995 0.4531,0.4025 0.1762,0.1029 0.371,0.1698 0.5732,0.197 0.2022,0.0272 0.4077,0.0141 0.6048,-0.0386 0.1971,-0.0528 0.3818,-0.144 0.5434,-0.2685 0.1616,-0.1245 0.297,-0.2798 0.3982,-0.4569 0.1013,-0.1771 0.1665,-0.3725 0.1918,-0.5749 0.0253,-0.2024 0.0102,-0.4079 -0.0443,-0.6045 -0.9153,-3.4036 -2.7088,-6.5069 -5.2011,-8.9991 -2.4922,-2.4922 -5.5955,-4.2858 -8.9991,-5.201 -0.1968,-0.0552 -0.4026,-0.0708 -0.6055,-0.0459 -0.2028,0.0249 -0.3987,0.0899 -0.5763,0.1911 -0.1776,0.1012 -0.3333,0.2367 -0.4581,0.3985 -0.1249,0.1618 -0.2163,0.3469 -0.2691,0.5443 -0.0528,0.1975 -0.0659,0.4035 -0.0385,0.606 0.0274,0.2026 0.0948,0.3976 0.1982,0.574 0.1034,0.1763 0.2407,0.3303 0.4041,0.4532 0.1634,0.1228 0.3495,0.212 0.5476,0.2624 z M 73.967,56.4634 C 73.344,61.307 70.979,65.7582 67.3138,68.9854 63.6486,72.2126 58.9338,73.9952 54.0503,74 24.247,74 0,49.7531 0,19.9498 0.00480364,15.0664 1.78716,10.3518 5.01415,6.6866 8.24113,3.02139 12.692,0.65627 17.5355,0.0330155 18.5305,-0.0863032 19.5374,0.11969 20.4056,0.620191 21.2738,1.12069 21.9567,1.8888 22.3521,2.80965 l 7.7566,18.09755 c 0.3018,0.7022 0.4248,1.4681 0.3581,2.2294 -0.0667,0.7614 -0.321,1.4943 -0.7403,2.1332 l -6.4227,9.814 c -0.1454,0.2178 -0.2321,0.4694 -0.2517,0.7304 -0.0197,0.2611 0.0285,0.5228 0.1397,0.7599 3.0565,6.2352 8.1121,11.2678 14.3612,14.2959 0.2384,0.1105 0.5014,0.1572 0.7632,0.1357 0.2619,-0.0215 0.5137,-0.1106 0.7309,-0.2585 l 9.6657,-6.4455 c 0.6407,-0.4287 1.3785,-0.6903 2.1462,-0.7608 0.7677,-0.0706 1.5408,0.0522 2.2489,0.357 l 18.0829,7.75 c 0.9206,0.3954 1.6885,1.0782 2.1888,1.9463 0.5004,0.8681 0.7067,1.8744 0.5874,2.8692 z M 69.9735,54.4863 51.8914,46.7367 c -0.2362,-0.1016 -0.4939,-0.1425 -0.7499,-0.119 -0.2559,0.0234 -0.502,0.1105 -0.7157,0.2533 l -9.6653,6.4455 c -0.6647,0.445 -1.4334,0.7098 -2.2311,0.7685 -0.7977,0.0586 -1.597,-0.0908 -2.3196,-0.4338 -6.8722,-3.3305 -12.4319,-8.8653 -15.7935,-15.7224 -0.3449,-0.7183 -0.4982,-1.5132 -0.4451,-2.3083 0.0532,-0.7951 0.3111,-1.5629 0.7486,-2.2288 l 6.4227,-9.8129 c 0.1398,-0.213 0.2245,-0.4574 0.2468,-0.7113 0.0222,-0.2538 -0.0188,-0.5092 -0.1194,-0.7434 L 19.5133,4.02656 C 19.3958,3.74981 19.2002,3.51337 18.9503,3.34624 18.7003,3.17911 18.4071,3.08856 18.1065,3.0857 18.0451,3.08563 17.9839,3.0895 17.9231,3.09728 13.8252,3.62481 10.0595,5.6262 7.3295,8.72754 4.59953,11.8289 3.09201,15.818 3.08859,19.9498 c 0,28.1003 22.86131,50.9616 50.96171,50.9616 4.1317,-0.0035 8.1208,-1.5111 11.2221,-4.2412 3.1012,-2.73 5.1025,-6.4957 5.63,-10.5937 0.0376,-0.3297 -0.0325,-0.6628 -0.1999,-0.9494 -0.1675,-0.2866 -0.4232,-0.5117 -0.729,-0.6408 z"
     fill="#ED8A0A"
     id="path1"
     style="fill:#fdcd00;fill-opacity:1" />
</svg>
