<?xml version="1.0" encoding="UTF-8" standalone="no"?>
<svg
   width="54"
   height="75"
   viewBox="0 0 54 75"
   fill="none"
   version="1.1"
   id="svg2"
   xmlns="http://www.w3.org/2000/svg"
   xmlns:svg="http://www.w3.org/2000/svg">
  <defs
     id="defs2" />
  <path
     d="M 26.7123,75 25.0685,73.1507 C 24.0411,72.1233 0,43.7671 0,26.7123 0,11.9178 11.9178,0 26.7123,0 c 14.7945,0 26.7124,11.9178 26.7124,26.7123 0,17.0548 -24.0411,45.411 -25.0685,46.6439 z m 0,-70.89041 C 14.1781,4.10959 4.10959,14.1781 4.10959,26.7123 4.10959,39.863 21.3699,62.0548 26.7123,68.6301 32.0548,62.0548 49.3151,39.863 49.3151,26.7123 49.3151,14.1781 39.2466,4.10959 26.7123,4.10959 Z"
     fill="#ED8A0A"
     id="path1"
     style="fill:#fdcd00;fill-opacity:1" />
  <path
     d="m 26.7123,36.9863 c -5.7534,0 -10.2739,-4.5205 -10.2739,-10.274 0,-5.7534 4.5205,-10.2739 10.2739,-10.2739 5.7535,0 10.274,4.5205 10.274,10.2739 0,5.7535 -4.5205,10.274 -10.274,10.274 z m 0,-16.4384 c -3.4931,0 -6.1644,2.6713 -6.1644,6.1644 0,3.4932 2.6713,6.1644 6.1644,6.1644 3.4932,0 6.1644,-2.6712 6.1644,-6.1644 0,-3.4931 -2.6712,-6.1644 -6.1644,-6.1644 z"
     fill="#ED8A0A"
     id="path2"
     style="fill:#fdcd00;fill-opacity:1" />
</svg>
