<?xml version="1.0" encoding="UTF-8" standalone="no"?>
<svg
   width="42"
   height="33"
   viewBox="0 0 42 33"
   fill="none"
   version="1.1"
   id="svg1"
   sodipodi:docname="quote-icon.svg"
   xmlns:inkscape="http://www.inkscape.org/namespaces/inkscape"
   xmlns:sodipodi="http://sodipodi.sourceforge.net/DTD/sodipodi-0.dtd"
   xmlns="http://www.w3.org/2000/svg"
   xmlns:svg="http://www.w3.org/2000/svg">
  <defs
     id="defs1" />
  <sodipodi:namedview
     id="namedview1"
     pagecolor="#ffffff"
     bordercolor="#000000"
     borderopacity="0.25"
     inkscape:showpageshadow="2"
     inkscape:pageopacity="0.0"
     inkscape:pagecheckerboard="0"
     inkscape:deskcolor="#d1d1d1" />
  <path
     d="M 18.0018,2.78164 16.517,0.5 C 6.23762,7.40196 0.526855,15.787 0.526855,22.6889 c 0,6.6738 4.911255,9.8111 9.080115,9.8111 5.25393,0 8.96593,-4.4492 8.96593,-9.1266 0,-3.9358 -2.5128,-7.3012 -5.8821,-8.5561 -0.9709,-0.3423 -1.8846,-0.6275 -1.8846,-2.2816 0,-2.1106 1.5419,-5.24782 7.1956,-9.75406 z m 22.6717,0 L 39.1887,0.5 C 29.0236,7.40196 23.1986,15.787 23.1986,22.6889 c 0,6.6738 5.0255,9.8111 9.1943,9.8111 5.311,0 9.0801,-4.4492 9.0801,-9.1266 0,-3.9358 -2.5698,-7.3012 -6.0534,-8.5561 -0.9708,-0.3423 -1.8274,-0.6275 -1.8274,-2.2816 0,-2.1106 1.599,-5.24782 7.0813,-9.75406 z"
     fill="#ED8A0A"
     id="path1"
     style="fill:#ffd400;fill-opacity:1" />
</svg>
