<?xml version="1.0" encoding="UTF-8" standalone="no"?>
<svg
   width="72"
   height="73"
   viewBox="0 0 72 73"
   fill="none"
   version="1.1"
   id="svg1"
   xmlns="http://www.w3.org/2000/svg"
   xmlns:svg="http://www.w3.org/2000/svg">
  <defs
     id="defs1" />
  <path
     opacity="0.15"
     d="m 4.5,29.0385 c -1.19347,0 -2.33807,0.4741 -3.18198,1.318 C 0.474106,31.2004 0,32.345 0,33.5385 v 4.887 c 0,6.0007 9,6.0007 9,0 v -4.887 C 9,32.345 8.52589,31.2004 7.68198,30.3565 6.83807,29.5126 5.69347,29.0385 4.5,29.0385 Z m 63,0 c -1.1935,0 -2.3381,0.4741 -3.182,1.318 C 63.4741,31.2004 63,32.345 63,33.5385 v 4.887 c 0,6.0007 9,6.0007 9,0 v -4.887 c 0,-1.1935 -0.4741,-2.3381 -1.318,-3.182 -0.8439,-0.8439 -1.9885,-1.318 -3.182,-1.318 z M 20.0385,43.7692 c -1.1935,0 -2.3381,0.4742 -3.182,1.3181 -0.8439,0.8439 -1.318,1.9885 -1.318,3.1819 v 4.887 c 0,6.0008 9,6.0008 9,0 v -4.851 c 0,-2.4952 -2.0047,-4.5 -4.5,-4.5 z m 0,-29.4614 c -1.1935,0 -2.3381,0.4741 -3.182,1.318 -0.8439,0.8439 -1.318,1.9885 -1.318,3.182 v 16.0784 c 0,6.0008 9,6.0008 9,0 v -16.101 c 0,-2.4952 -2.0047,-4.5 -4.5,-4.5 z m 31.923,0 c -2.4952,0 -4.5,2.016 -4.5,4.5 v 4.9229 c 0,6.0008 9,6.0008 9,0 v -4.9229 c 0,-1.1935 -0.4741,-2.3381 -1.318,-3.182 -0.8439,-0.8439 -1.9885,-1.318 -3.182,-1.318 z M 36,0 C 34.8065,0 33.6619,0.474106 32.818,1.31802 31.9741,2.16193 31.5,3.30653 31.5,4.5 v 4.887 c 0,6.0007 9,6.0007 9,0 V 4.5 C 40.5,3.30653 40.0259,2.16193 39.182,1.31802 38.3381,0.474106 37.1935,0 36,0 Z m 0,58.0793 c -1.1935,0 -2.3381,0.4741 -3.182,1.318 -0.8439,0.8439 -1.318,1.9885 -1.318,3.182 v 4.923 c -0.0225,6.0007 8.9775,6.0345 9,0.036 v -4.9231 c 0,-2.4614 -2.016,-4.5 -4.5,-4.5 z M 51.9615,32.6948 c -2.4952,0 -4.5,2.0384 -4.5,4.5 V 53.19 c 0,6.0008 9,6.0008 9,0 V 37.1948 c 0,-1.1935 -0.4741,-2.3381 -1.318,-3.182 -0.8439,-0.8439 -1.9885,-1.318 -3.182,-1.318 z M 36,18.387 c -2.484,0 -4.5,2.0385 -4.5,4.5 v 26.1923 c 0,6.0007 9,6.0007 9,0 V 22.923 c 0,-2.4953 -2.016,-4.5 -4.5,-4.5 z"
     fill="#ED8A0A"
     id="path1"
     style="fill:#fdcd00;fill-opacity:1" />
</svg>
