<?xml version="1.0" encoding="UTF-8" standalone="no"?>
<svg
   width="90"
   height="80"
   viewBox="0 0 90 80"
   fill="none"
   version="1.1"
   id="svg90"
   xmlns="http://www.w3.org/2000/svg"
   xmlns:svg="http://www.w3.org/2000/svg">
  <defs
     id="defs90" />
  <g
     opacity="0.5"
     id="g90"
     style="fill:#fdcd00;fill-opacity:1">
    <path
       d="M 0,0 H 1.47541 V 1.47239 H 0 Z"
       fill="#ED8A0A"
       id="path1"
       style="fill:#fdcd00;fill-opacity:1" />
    <path
       d="M 9.83607,0 H 11.3115 V 1.47239 H 9.83607 Z"
       fill="#ED8A0A"
       id="path2"
       style="fill:#fdcd00;fill-opacity:1" />
    <path
       d="m 19.6721,0 h 1.4754 v 1.47239 h -1.4754 z"
       fill="#ED8A0A"
       id="path3"
       style="fill:#fdcd00;fill-opacity:1" />
    <path
       d="m 29.5082,0 h 1.4754 v 1.47239 h -1.4754 z"
       fill="#ED8A0A"
       id="path4"
       style="fill:#fdcd00;fill-opacity:1" />
    <path
       d="m 39.3443,0 h 1.4754 v 1.47239 h -1.4754 z"
       fill="#ED8A0A"
       id="path5"
       style="fill:#fdcd00;fill-opacity:1" />
    <path
       d="m 49.1803,0 h 1.4754 v 1.47239 h -1.4754 z"
       fill="#ED8A0A"
       id="path6"
       style="fill:#fdcd00;fill-opacity:1" />
    <path
       d="m 59.0164,0 h 1.4754 v 1.47239 h -1.4754 z"
       fill="#ED8A0A"
       id="path7"
       style="fill:#fdcd00;fill-opacity:1" />
    <path
       d="m 68.8525,0 h 1.4754 v 1.47239 h -1.4754 z"
       fill="#ED8A0A"
       id="path8"
       style="fill:#fdcd00;fill-opacity:1" />
    <path
       d="m 78.6885,0 h 1.4754 v 1.47239 h -1.4754 z"
       fill="#ED8A0A"
       id="path9"
       style="fill:#fdcd00;fill-opacity:1" />
    <path
       d="M 88.5246,0 H 90 v 1.47239 h -1.4754 z"
       fill="#ED8A0A"
       id="path10"
       style="fill:#fdcd00;fill-opacity:1" />
    <path
       d="M 0,9.81595 H 1.47541 V 11.2883 H 0 Z"
       fill="#ED8A0A"
       id="path11"
       style="fill:#fdcd00;fill-opacity:1" />
    <path
       d="M 9.83607,9.81597 H 11.3115 V 11.2884 H 9.83607 Z"
       fill="#ED8A0A"
       id="path12"
       style="fill:#fdcd00;fill-opacity:1" />
    <path
       d="m 19.6721,9.81597 h 1.4754 v 1.47243 h -1.4754 z"
       fill="#ED8A0A"
       id="path13"
       style="fill:#fdcd00;fill-opacity:1" />
    <path
       d="m 29.5082,9.81597 h 1.4754 v 1.47243 h -1.4754 z"
       fill="#ED8A0A"
       id="path14"
       style="fill:#fdcd00;fill-opacity:1" />
    <path
       d="m 39.3443,9.81597 h 1.4754 v 1.47243 h -1.4754 z"
       fill="#ED8A0A"
       id="path15"
       style="fill:#fdcd00;fill-opacity:1" />
    <path
       d="m 49.1803,9.81597 h 1.4754 v 1.47243 h -1.4754 z"
       fill="#ED8A0A"
       id="path16"
       style="fill:#fdcd00;fill-opacity:1" />
    <path
       d="m 59.0164,9.81597 h 1.4754 v 1.47243 h -1.4754 z"
       fill="#ED8A0A"
       id="path17"
       style="fill:#fdcd00;fill-opacity:1" />
    <path
       d="m 68.8525,9.81597 h 1.4754 v 1.47243 h -1.4754 z"
       fill="#ED8A0A"
       id="path18"
       style="fill:#fdcd00;fill-opacity:1" />
    <path
       d="m 78.6885,9.81597 h 1.4754 v 1.47243 h -1.4754 z"
       fill="#ED8A0A"
       id="path19"
       style="fill:#fdcd00;fill-opacity:1" />
    <path
       d="M 88.5246,9.81597 H 90 v 1.47243 h -1.4754 z"
       fill="#ED8A0A"
       id="path20"
       style="fill:#fdcd00;fill-opacity:1" />
    <path
       d="m 0,19.6319 h 1.47541 v 1.4724 H 0 Z"
       fill="#ED8A0A"
       id="path21"
       style="fill:#fdcd00;fill-opacity:1" />
    <path
       d="m 9.83607,19.6319 h 1.47543 v 1.4724 H 9.83607 Z"
       fill="#ED8A0A"
       id="path22"
       style="fill:#fdcd00;fill-opacity:1" />
    <path
       d="m 19.6721,19.6319 h 1.4754 v 1.4724 h -1.4754 z"
       fill="#ED8A0A"
       id="path23"
       style="fill:#fdcd00;fill-opacity:1" />
    <path
       d="m 29.5082,19.6319 h 1.4754 v 1.4724 h -1.4754 z"
       fill="#ED8A0A"
       id="path24"
       style="fill:#fdcd00;fill-opacity:1" />
    <path
       d="m 39.3443,19.6319 h 1.4754 v 1.4724 h -1.4754 z"
       fill="#ED8A0A"
       id="path25"
       style="fill:#fdcd00;fill-opacity:1" />
    <path
       d="m 49.1803,19.6319 h 1.4754 v 1.4724 h -1.4754 z"
       fill="#ED8A0A"
       id="path26"
       style="fill:#fdcd00;fill-opacity:1" />
    <path
       d="m 59.0164,19.6319 h 1.4754 v 1.4724 h -1.4754 z"
       fill="#ED8A0A"
       id="path27"
       style="fill:#fdcd00;fill-opacity:1" />
    <path
       d="m 68.8525,19.6319 h 1.4754 v 1.4724 h -1.4754 z"
       fill="#ED8A0A"
       id="path28"
       style="fill:#fdcd00;fill-opacity:1" />
    <path
       d="m 78.6885,19.6319 h 1.4754 v 1.4724 h -1.4754 z"
       fill="#ED8A0A"
       id="path29"
       style="fill:#fdcd00;fill-opacity:1" />
    <path
       d="M 88.5246,19.6319 H 90 v 1.4724 h -1.4754 z"
       fill="#ED8A0A"
       id="path30"
       style="fill:#fdcd00;fill-opacity:1" />
    <path
       d="m 0,29.4478 h 1.47541 v 1.4724 H 0 Z"
       fill="#ED8A0A"
       id="path31"
       style="fill:#fdcd00;fill-opacity:1" />
    <path
       d="m 9.83607,29.4478 h 1.47543 v 1.4724 H 9.83607 Z"
       fill="#ED8A0A"
       id="path32"
       style="fill:#fdcd00;fill-opacity:1" />
    <path
       d="m 19.6721,29.4478 h 1.4754 v 1.4724 h -1.4754 z"
       fill="#ED8A0A"
       id="path33"
       style="fill:#fdcd00;fill-opacity:1" />
    <path
       d="m 29.5082,29.4478 h 1.4754 v 1.4724 h -1.4754 z"
       fill="#ED8A0A"
       id="path34"
       style="fill:#fdcd00;fill-opacity:1" />
    <path
       d="m 39.3443,29.4478 h 1.4754 v 1.4724 h -1.4754 z"
       fill="#ED8A0A"
       id="path35"
       style="fill:#fdcd00;fill-opacity:1" />
    <path
       d="m 49.1803,29.4478 h 1.4754 v 1.4724 h -1.4754 z"
       fill="#ED8A0A"
       id="path36"
       style="fill:#fdcd00;fill-opacity:1" />
    <path
       d="m 59.0164,29.4478 h 1.4754 v 1.4724 h -1.4754 z"
       fill="#ED8A0A"
       id="path37"
       style="fill:#fdcd00;fill-opacity:1" />
    <path
       d="m 68.8525,29.4478 h 1.4754 v 1.4724 h -1.4754 z"
       fill="#ED8A0A"
       id="path38"
       style="fill:#fdcd00;fill-opacity:1" />
    <path
       d="m 78.6885,29.4478 h 1.4754 v 1.4724 h -1.4754 z"
       fill="#ED8A0A"
       id="path39"
       style="fill:#fdcd00;fill-opacity:1" />
    <path
       d="M 88.5246,29.4478 H 90 v 1.4724 h -1.4754 z"
       fill="#ED8A0A"
       id="path40"
       style="fill:#fdcd00;fill-opacity:1" />
    <path
       d="m 0,39.2638 h 1.47541 v 1.4724 H 0 Z"
       fill="#ED8A0A"
       id="path41"
       style="fill:#fdcd00;fill-opacity:1" />
    <path
       d="m 9.83607,39.2637 h 1.47543 v 1.4724 H 9.83607 Z"
       fill="#ED8A0A"
       id="path42"
       style="fill:#fdcd00;fill-opacity:1" />
    <path
       d="m 19.6721,39.2637 h 1.4754 v 1.4724 h -1.4754 z"
       fill="#ED8A0A"
       id="path43"
       style="fill:#fdcd00;fill-opacity:1" />
    <path
       d="m 29.5082,39.2637 h 1.4754 v 1.4724 h -1.4754 z"
       fill="#ED8A0A"
       id="path44"
       style="fill:#fdcd00;fill-opacity:1" />
    <path
       d="m 39.3443,39.2637 h 1.4754 v 1.4724 h -1.4754 z"
       fill="#ED8A0A"
       id="path45"
       style="fill:#fdcd00;fill-opacity:1" />
    <path
       d="m 49.1803,39.2637 h 1.4754 v 1.4724 h -1.4754 z"
       fill="#ED8A0A"
       id="path46"
       style="fill:#fdcd00;fill-opacity:1" />
    <path
       d="m 59.0164,39.2637 h 1.4754 v 1.4724 h -1.4754 z"
       fill="#ED8A0A"
       id="path47"
       style="fill:#fdcd00;fill-opacity:1" />
    <path
       d="m 68.8525,39.2637 h 1.4754 v 1.4724 h -1.4754 z"
       fill="#ED8A0A"
       id="path48"
       style="fill:#fdcd00;fill-opacity:1" />
    <path
       d="m 78.6885,39.2637 h 1.4754 v 1.4724 h -1.4754 z"
       fill="#ED8A0A"
       id="path49"
       style="fill:#fdcd00;fill-opacity:1" />
    <path
       d="M 88.5246,39.2637 H 90 v 1.4724 h -1.4754 z"
       fill="#ED8A0A"
       id="path50"
       style="fill:#fdcd00;fill-opacity:1" />
    <path
       d="m 0,49.0798 h 1.47541 v 1.4723 H 0 Z"
       fill="#ED8A0A"
       id="path51"
       style="fill:#fdcd00;fill-opacity:1" />
    <path
       d="m 9.83607,49.0798 h 1.47543 v 1.4724 H 9.83607 Z"
       fill="#ED8A0A"
       id="path52"
       style="fill:#fdcd00;fill-opacity:1" />
    <path
       d="m 19.6721,49.0798 h 1.4754 v 1.4724 h -1.4754 z"
       fill="#ED8A0A"
       id="path53"
       style="fill:#fdcd00;fill-opacity:1" />
    <path
       d="m 29.5082,49.0798 h 1.4754 v 1.4724 h -1.4754 z"
       fill="#ED8A0A"
       id="path54"
       style="fill:#fdcd00;fill-opacity:1" />
    <path
       d="m 39.3443,49.0798 h 1.4754 v 1.4724 h -1.4754 z"
       fill="#ED8A0A"
       id="path55"
       style="fill:#fdcd00;fill-opacity:1" />
    <path
       d="m 49.1803,49.0798 h 1.4754 v 1.4724 h -1.4754 z"
       fill="#ED8A0A"
       id="path56"
       style="fill:#fdcd00;fill-opacity:1" />
    <path
       d="m 59.0164,49.0798 h 1.4754 v 1.4724 h -1.4754 z"
       fill="#ED8A0A"
       id="path57"
       style="fill:#fdcd00;fill-opacity:1" />
    <path
       d="m 68.8525,49.0798 h 1.4754 v 1.4724 h -1.4754 z"
       fill="#ED8A0A"
       id="path58"
       style="fill:#fdcd00;fill-opacity:1" />
    <path
       d="m 78.6885,49.0798 h 1.4754 v 1.4724 h -1.4754 z"
       fill="#ED8A0A"
       id="path59"
       style="fill:#fdcd00;fill-opacity:1" />
    <path
       d="M 88.5246,49.0798 H 90 v 1.4724 h -1.4754 z"
       fill="#ED8A0A"
       id="path60"
       style="fill:#fdcd00;fill-opacity:1" />
    <path
       d="m 0,58.8957 h 1.47541 v 1.4724 H 0 Z"
       fill="#ED8A0A"
       id="path61"
       style="fill:#fdcd00;fill-opacity:1" />
    <path
       d="m 9.83607,58.8957 h 1.47543 v 1.4724 H 9.83607 Z"
       fill="#ED8A0A"
       id="path62"
       style="fill:#fdcd00;fill-opacity:1" />
    <path
       d="m 19.6721,58.8957 h 1.4754 v 1.4724 h -1.4754 z"
       fill="#ED8A0A"
       id="path63"
       style="fill:#fdcd00;fill-opacity:1" />
    <path
       d="m 29.5082,58.8957 h 1.4754 v 1.4724 h -1.4754 z"
       fill="#ED8A0A"
       id="path64"
       style="fill:#fdcd00;fill-opacity:1" />
    <path
       d="m 39.3443,58.8957 h 1.4754 v 1.4724 h -1.4754 z"
       fill="#ED8A0A"
       id="path65"
       style="fill:#fdcd00;fill-opacity:1" />
    <path
       d="m 49.1803,58.8957 h 1.4754 v 1.4724 h -1.4754 z"
       fill="#ED8A0A"
       id="path66"
       style="fill:#fdcd00;fill-opacity:1" />
    <path
       d="m 59.0164,58.8957 h 1.4754 v 1.4724 h -1.4754 z"
       fill="#ED8A0A"
       id="path67"
       style="fill:#fdcd00;fill-opacity:1" />
    <path
       d="m 68.8525,58.8957 h 1.4754 v 1.4724 h -1.4754 z"
       fill="#ED8A0A"
       id="path68"
       style="fill:#fdcd00;fill-opacity:1" />
    <path
       d="m 78.6885,58.8957 h 1.4754 v 1.4724 h -1.4754 z"
       fill="#ED8A0A"
       id="path69"
       style="fill:#fdcd00;fill-opacity:1" />
    <path
       d="M 88.5246,58.8957 H 90 v 1.4724 h -1.4754 z"
       fill="#ED8A0A"
       id="path70"
       style="fill:#fdcd00;fill-opacity:1" />
    <path
       d="M 0,68.7116 H 1.47541 V 70.184 H 0 Z"
       fill="#ED8A0A"
       id="path71"
       style="fill:#fdcd00;fill-opacity:1" />
    <path
       d="m 9.83607,68.7117 h 1.47543 v 1.4724 H 9.83607 Z"
       fill="#ED8A0A"
       id="path72"
       style="fill:#fdcd00;fill-opacity:1" />
    <path
       d="m 19.6721,68.7117 h 1.4754 v 1.4724 h -1.4754 z"
       fill="#ED8A0A"
       id="path73"
       style="fill:#fdcd00;fill-opacity:1" />
    <path
       d="m 29.5082,68.7117 h 1.4754 v 1.4724 h -1.4754 z"
       fill="#ED8A0A"
       id="path74"
       style="fill:#fdcd00;fill-opacity:1" />
    <path
       d="m 39.3443,68.7117 h 1.4754 v 1.4724 h -1.4754 z"
       fill="#ED8A0A"
       id="path75"
       style="fill:#fdcd00;fill-opacity:1" />
    <path
       d="m 49.1803,68.7117 h 1.4754 v 1.4724 h -1.4754 z"
       fill="#ED8A0A"
       id="path76"
       style="fill:#fdcd00;fill-opacity:1" />
    <path
       d="m 59.0164,68.7117 h 1.4754 v 1.4724 h -1.4754 z"
       fill="#ED8A0A"
       id="path77"
       style="fill:#fdcd00;fill-opacity:1" />
    <path
       d="m 68.8525,68.7117 h 1.4754 v 1.4724 h -1.4754 z"
       fill="#ED8A0A"
       id="path78"
       style="fill:#fdcd00;fill-opacity:1" />
    <path
       d="m 78.6885,68.7117 h 1.4754 v 1.4724 h -1.4754 z"
       fill="#ED8A0A"
       id="path79"
       style="fill:#fdcd00;fill-opacity:1" />
    <path
       d="M 88.5246,68.7117 H 90 v 1.4724 h -1.4754 z"
       fill="#ED8A0A"
       id="path80"
       style="fill:#fdcd00;fill-opacity:1" />
    <path
       d="M 0,78.5276 H 1.47541 V 80 H 0 Z"
       fill="#ED8A0A"
       id="path81"
       style="fill:#fdcd00;fill-opacity:1" />
    <path
       d="M 9.83607,78.5276 H 11.3115 V 80 H 9.83607 Z"
       fill="#ED8A0A"
       id="path82"
       style="fill:#fdcd00;fill-opacity:1" />
    <path
       d="m 19.6721,78.5276 h 1.4754 V 80 h -1.4754 z"
       fill="#ED8A0A"
       id="path83"
       style="fill:#fdcd00;fill-opacity:1" />
    <path
       d="m 29.5082,78.5276 h 1.4754 V 80 h -1.4754 z"
       fill="#ED8A0A"
       id="path84"
       style="fill:#fdcd00;fill-opacity:1" />
    <path
       d="m 39.3443,78.5276 h 1.4754 V 80 h -1.4754 z"
       fill="#ED8A0A"
       id="path85"
       style="fill:#fdcd00;fill-opacity:1" />
    <path
       d="m 49.1803,78.5276 h 1.4754 V 80 h -1.4754 z"
       fill="#ED8A0A"
       id="path86"
       style="fill:#fdcd00;fill-opacity:1" />
    <path
       d="m 59.0164,78.5276 h 1.4754 V 80 h -1.4754 z"
       fill="#ED8A0A"
       id="path87"
       style="fill:#fdcd00;fill-opacity:1" />
    <path
       d="m 68.8525,78.5276 h 1.4754 V 80 h -1.4754 z"
       fill="#ED8A0A"
       id="path88"
       style="fill:#fdcd00;fill-opacity:1" />
    <path
       d="m 78.6885,78.5276 h 1.4754 V 80 h -1.4754 z"
       fill="#ED8A0A"
       id="path89"
       style="fill:#fdcd00;fill-opacity:1" />
    <path
       d="M 88.5246,78.5276 H 90 V 80 h -1.4754 z"
       fill="#ED8A0A"
       id="path90"
       style="fill:#fdcd00;fill-opacity:1" />
  </g>
</svg>
