<?xml version="1.0" standalone="no"?>
<!DOCTYPE svg PUBLIC "-//W3C//DTD SVG 20010904//EN"
 "http://www.w3.org/TR/2001/REC-SVG-20010904/DTD/svg10.dtd">
<svg version="1.0" xmlns="http://www.w3.org/2000/svg"
 width="800.000000pt" height="800.000000pt" viewBox="0 0 800.000000 800.000000"
 preserveAspectRatio="xMidYMid meet">
<metadata>
Created by potrace 1.14, written by Peter Selinger 2001-2017
</metadata>
<g transform="translate(0.000000,800.000000) scale(0.100000,-0.100000)"
fill="#000000" stroke="none">
<path d="M3936 7894 c-16 -11 -18 -39 -20 -269 -2 -252 -2 -257 20 -280 34
-36 67 -41 109 -15 62 38 62 41 60 295 -3 273 -1 250 -21 270 -20 19 -121 19
-148 -1z"/>
<path d="M2009 7121 c-34 -26 -53 -73 -45 -107 7 -27 319 -343 340 -345 6 0
22 -3 36 -5 52 -10 100 32 100 87 0 37 -29 74 -182 227 -125 125 -159 153
-188 158 -26 4 -42 1 -61 -15z"/>
<path d="M5754 6979 c-172 -171 -196 -207 -175 -261 19 -50 76 -77 125 -58 38
14 343 320 351 352 9 35 -1 88 -19 106 -8 8 -38 17 -66 20 l-51 5 -165 -164z"/>
<path d="M4185 6793 c-63 -22 -103 -53 -154 -123 -44 -60 -52 -66 -87 -68 -21
-2 -50 -5 -64 -7 -116 -19 -148 -25 -167 -30 -13 -3 -31 -7 -40 -9 -207 -47
-429 -151 -608 -286 -63 -47 -221 -200 -269 -260 -141 -177 -226 -342 -280
-540 -34 -127 -41 -189 -41 -355 0 -177 7 -230 54 -410 14 -53 71 -188 108
-255 48 -87 168 -250 243 -330 205 -219 340 -440 428 -703 40 -118 50 -134 90
-156 32 -17 27 -36 -23 -84 -39 -38 -45 -49 -45 -86 0 -52 18 -89 59 -119 40
-29 39 -45 -4 -79 -70 -56 -71 -125 -3 -199 29 -32 43 -57 49 -92 12 -64 32
-101 71 -137 53 -48 71 -56 173 -70 62 -9 71 -13 100 -50 30 -41 83 -70 141
-78 71 -11 377 -9 408 3 16 6 46 24 67 41 55 43 147 87 199 95 53 8 97 28 122
58 24 27 59 101 64 135 2 14 5 35 7 46 4 31 16 45 38 45 32 0 59 56 55 114 -3
46 -7 53 -51 92 l-48 41 28 24 c70 60 82 84 71 144 -4 22 -20 46 -45 67 -56
49 -57 61 -6 102 35 29 47 47 59 94 25 88 74 208 128 311 77 146 93 165 161
202 78 41 167 130 195 192 19 42 25 64 36 127 10 57 20 77 49 97 59 40 123
112 149 165 49 101 52 190 10 325 -9 28 -6 37 25 84 89 131 98 272 27 410 -9
19 -20 36 -23 39 -4 3 -19 20 -34 38 -25 31 -27 41 -27 118 0 126 -27 197
-106 283 -62 67 -136 115 -216 141 -43 13 -44 16 -22 68 18 44 25 149 13 203
-38 169 -180 296 -384 344 -71 17 -80 22 -104 58 -43 64 -116 131 -179 165
-120 64 -299 89 -397 55z"/>
<path d="M1273 5210 c-84 -5 -95 -8 -120 -32 -32 -33 -36 -82 -9 -122 23 -35
59 -48 126 -46 72 3 161 3 293 0 95 -3 112 -1 135 17 54 40 55 140 2 168 -31
16 -259 24 -427 15z"/>
<path d="M6368 5209 c-44 -7 -62 -20 -78 -58 -15 -38 -1 -89 31 -113 22 -17
50 -19 271 -22 242 -4 247 -3 266 18 52 56 54 93 8 144 l-34 37 -214 0 c-117
0 -230 -3 -250 -6z"/>
<path d="M4386 1965 c-33 -13 -69 -34 -80 -45 l-21 -21 22 -17 c38 -29 55 -88
60 -205 l5 -108 -28 8 c-48 13 -130 6 -177 -15 -51 -22 -127 -87 -127 -108 0
-8 -4 -14 -8 -14 -11 0 -59 -120 -72 -180 -25 -115 -4 -277 44 -351 83 -124
296 -84 296 56 0 34 -25 56 -53 46 -12 -5 -34 -4 -50 1 -113 40 -81 399 40
462 39 20 93 13 116 -15 16 -20 18 -35 13 -133 -3 -61 -9 -187 -12 -281 -6
-167 -6 -170 16 -190 16 -15 39 -20 93 -23 85 -3 102 4 88 40 -5 14 -12 40
-15 59 -7 37 -7 467 -1 539 5 53 7 458 2 480 -9 48 -60 53 -151 15z"/>
<path d="M3075 1795 c-16 -7 -43 -25 -58 -39 -26 -25 -28 -30 -25 -103 l2 -78
-39 -5 c-40 -5 -40 -5 -40 -50 l0 -45 40 -5 40 -5 -1 -100 c-1 -115 -13 -332
-19 -366 -12 -58 -9 -137 4 -152 15 -19 66 -35 130 -41 51 -5 71 1 66 17 -12
35 -16 119 -21 373 l-6 280 40 -2 c48 -2 82 26 85 72 2 28 2 29 -58 29 l-60 0
2 67 c1 36 4 89 7 117 l5 51 -32 -1 c-18 0 -45 -7 -62 -14z"/>
<path d="M5160 1603 c-47 -6 -115 -26 -152 -45 -43 -21 -50 -48 -16 -63 12 -6
31 -22 42 -38 42 -56 17 -217 -56 -361 -19 -37 -21 -39 -34 -22 -13 18 -74
199 -109 321 -31 112 -45 151 -62 174 -14 21 -21 23 -61 17 -25 -3 -69 -14
-99 -23 -63 -20 -77 -44 -40 -73 34 -27 97 -158 158 -330 80 -226 99 -288 99
-321 0 -17 -25 -85 -56 -152 -62 -132 -74 -185 -54 -223 17 -31 122 -84 167
-84 36 0 40 10 23 56 -19 50 -18 165 2 263 21 105 27 118 173 411 133 266 170
378 152 452 -7 28 -40 45 -77 41z"/>
<path d="M2613 1588 c-133 -15 -211 -89 -218 -206 -7 -103 30 -150 172 -218
124 -59 151 -103 112 -180 -23 -44 -98 -57 -150 -27 -36 21 -44 47 -35 119 l6
54 -31 0 c-85 0 -139 -76 -125 -174 15 -101 162 -161 315 -130 139 29 209 109
212 246 3 95 -55 168 -181 230 -122 59 -141 83 -113 140 9 19 26 31 55 39 54
14 94 5 140 -31 33 -27 38 -28 52 -15 22 23 31 82 16 110 -10 18 -26 27 -64
34 -85 16 -99 17 -163 9z"/>
<path d="M3355 1592 c-54 -4 -61 -14 -42 -61 17 -42 18 -118 1 -427 -6 -125
-5 -135 16 -179 19 -40 32 -52 77 -72 90 -42 196 -32 254 23 l25 24 13 -23
c17 -33 46 -48 99 -53 70 -6 76 1 64 77 -11 69 -8 495 4 569 4 25 7 63 8 85 1
38 -1 40 -29 42 -44 2 -128 -24 -154 -49 -20 -18 -22 -26 -15 -67 5 -25 9
-134 8 -241 0 -208 -4 -230 -54 -275 -32 -29 -94 -25 -128 8 -25 26 -27 33
-26 110 1 50 11 127 28 199 15 65 28 137 30 161 8 103 -59 158 -179 149z"/>
<path d="M3030 423 c0 -206 1 -213 20 -213 23 0 22 -10 22 205 0 235 1 224
-22 222 -19 -1 -20 -8 -20 -214z"/>
<path d="M2543 621 c-6 -3 -10 -92 -10 -209 -1 -202 -1 -203 21 -200 20 3 21
8 21 96 0 56 4 92 10 92 171 7 213 33 202 127 -5 46 -27 75 -64 87 -29 9 -169
15 -180 7z m188 -69 c30 -38 6 -98 -41 -103 -47 -5 -101 -5 -108 0 -14 10 -9
125 6 131 8 3 39 3 69 0 41 -5 61 -12 74 -28z"/>
<path d="M4388 625 c-2 -2 -71 -5 -152 -6 -171 -2 -185 -9 -122 -65 l38 -34
-17 -44 c-9 -24 -14 -53 -11 -64 11 -34 77 -93 134 -119 61 -29 165 -42 177
-23 12 19 -6 27 -66 33 -76 7 -160 52 -195 105 -16 25 -11 82 8 82 6 0 39 -25
74 -56 l64 -55 94 3 c73 2 92 0 89 -10 -3 -7 -14 -17 -25 -23 -24 -13 -38 -49
-27 -70 6 -12 2 -27 -14 -50 -58 -89 -58 -101 1 -118 36 -11 42 -6 48 42 3 18
6 44 9 60 2 15 13 35 25 45 20 16 27 45 20 77 -8 37 1 52 33 52 62 0 77 3 77
17 0 7 -52 58 -116 112 -121 104 -138 116 -146 109z m-1 -44 c6 -1 18 -7 25
-14 7 -7 45 -39 83 -71 39 -32 71 -62 73 -67 7 -17 -39 1 -116 45 -87 50 -102
55 -102 29 0 -11 20 -29 50 -46 28 -16 50 -30 50 -32 0 -3 -28 -4 -63 -2 -53
2 -68 7 -93 30 -16 16 -55 49 -86 75 l-58 47 68 5 c57 4 100 4 169 1z m123
-282 c0 -5 -7 -9 -15 -9 -15 0 -20 12 -9 23 8 8 24 -1 24 -14z m-63 -141 c-3
-8 -6 -5 -6 6 -1 11 2 17 5 13 3 -3 4 -12 1 -19z"/>
<path d="M3861 509 c-17 -10 -31 -24 -32 -31 0 -7 -2 -20 -3 -28 -7 -31 15
-61 68 -95 30 -19 56 -40 58 -47 18 -54 -54 -83 -102 -42 -13 11 -18 10 -28
-6 -11 -18 -9 -22 19 -39 67 -41 152 1 152 75 0 30 -6 43 -33 66 -19 15 -39
28 -45 28 -19 0 -58 48 -52 64 11 28 41 36 76 19 28 -14 34 -14 42 -2 13 21
11 25 -18 39 -43 20 -68 20 -102 -1z"/>
<path d="M3319 513 c-6 -50 3 -219 13 -240 19 -38 59 -64 104 -67 55 -4 91 11
120 50 24 31 26 42 27 146 2 108 1 113 -19 114 -20 1 -21 -4 -22 -103 -1 -116
-11 -144 -59 -160 -37 -13 -89 2 -108 30 -10 16 -16 56 -18 127 -2 90 -5 105
-20 108 -9 2 -17 0 -18 -5z"/>
</g>
</svg>
