<?xml version="1.0" encoding="UTF-8" standalone="no"?>
<!-- Generator: Adobe Illustrator 19.0.0, SVG Export Plug-In . SVG Version: 6.00 Build 0)  -->

<svg
   version="1.1"
   id="Layer_1"
   x="0px"
   y="0px"
   viewBox="0 0 262144 262144"
   xml:space="preserve"
   sodipodi:docname="uk.svg"
   width="262144"
   height="262144"
   xmlns:inkscape="http://www.inkscape.org/namespaces/inkscape"
   xmlns:sodipodi="http://sodipodi.sourceforge.net/DTD/sodipodi-0.dtd"
   xmlns="http://www.w3.org/2000/svg"
   xmlns:svg="http://www.w3.org/2000/svg"><defs
   id="defs32" /><sodipodi:namedview
   id="namedview32"
   pagecolor="#ffffff"
   bordercolor="#000000"
   borderopacity="0.25"
   inkscape:showpageshadow="2"
   inkscape:pageopacity="0.0"
   inkscape:pagecheckerboard="0"
   inkscape:deskcolor="#d1d1d1" />
<g
   id="g8">
	<polygon
   style="fill:#41479b"
   points="0,39.954 188.632,163.54 188.632,0 0,0 "
   id="polygon1" />
    <polygon
   style="fill:#41479b"
   points="79.419,188.632 0,136.598 0,188.632 "
   id="polygon2" />
    <polygon
   style="fill:#41479b"
   points="79.419,323.369 0,323.369 0,375.402 "
   id="polygon3" />
    <polygon
   style="fill:#41479b"
   points="323.368,0 323.368,163.54 512,39.954 512,0 "
   id="polygon4" />
    <polygon
   style="fill:#41479b"
   points="432.581,323.369 512,375.402 512,323.369 "
   id="polygon5" />
    <polygon
   style="fill:#41479b"
   points="512,512 512,472.046 323.368,348.46 323.368,512 "
   id="polygon6" />
    <polygon
   style="fill:#41479b"
   points="432.581,188.632 512,188.632 512,136.598 "
   id="polygon7" />
    <polygon
   style="fill:#41479b"
   points="188.632,512 188.632,348.46 0,472.046 0,512 "
   id="polygon8" />
</g>
    <g
   id="g12">
	<polygon
   style="fill:#f5f5f5"
   points="344.465,323.369 393.961,323.369 512,399.989 512,375.402 432.581,323.369 512,323.369 512,296.421 296.421,296.421 296.421,512 323.368,512 323.368,348.46 512,472.046 512,432.118 "
   id="polygon9" />
        <polygon
   style="fill:#f5f5f5"
   points="79.419,323.369 0,375.402 0,413.203 138.395,323.369 187.891,323.369 0,445.332 0,472.046 188.632,348.46 188.632,512 215.579,512 215.579,296.421 0,296.421 0,323.369 "
   id="polygon10" />
        <polygon
   style="fill:#f5f5f5"
   points="188.632,163.54 0,39.954 0,83.679 161.684,188.632 112.188,188.632 0,115.807 0,136.598 79.419,188.632 0,188.632 0,215.579 215.579,215.579 215.579,0 188.632,0 "
   id="polygon11" />
        <polygon
   style="fill:#f5f5f5"
   points="432.581,188.632 512,136.598 512,98.314 372.864,188.632 323.368,188.632 512,66.185 512,39.954 323.368,163.54 323.368,0 296.421,0 296.421,215.579 512,215.579 512,188.632 "
   id="polygon12" />
</g>
    <g
   id="g17">
	<polygon
   style="fill:#ff4b55"
   points="296.421,215.579 296.421,0 215.579,0 215.579,215.579 0,215.579 0,296.421 215.579,296.421 215.579,512 296.421,512 296.421,296.421 512,296.421 512,215.579 "
   id="polygon13" />
        <polygon
   style="fill:#ff4b55"
   points="0,445.332 187.891,323.369 138.395,323.369 0,413.203 "
   id="polygon14" />
        <polygon
   style="fill:#ff4b55"
   points="512,399.989 393.961,323.369 344.465,323.369 512,432.118 "
   id="polygon15" />
        <polygon
   style="fill:#ff4b55"
   points="0,115.807 112.188,188.632 161.684,188.632 0,83.679 "
   id="polygon16" />
        <polygon
   style="fill:#ff4b55"
   points="512,66.185 323.368,188.632 372.864,188.632 512,98.314 "
   id="polygon17" />
</g>
    
    
    
    
    
    
    
    
    
    
    
    
    
    
    
</svg>
